# xmcd CD database file
#
# Track frame offsets:
#	150
#	21960
#	41702
#	60400
#	77477
#	93025
#	116840
#	133677
#	148357
#	163247
#	176967
#	195587
#	208002
#	219567
#	236307
#	255259
#	288705
#	301837
#	316377
#
# Disc length: 4538 seconds
#
# Revision: 0
# Processed by: cddbd v1.5.1PL0 Copyright (c) Steve Scherf et al.
# Submitted via: CDex 1.51
#
DISCID=1511b813
DTITLE=Chris Brenne - Lady of the Spice Lands
DYEAR=2003
DGENRE=New Age
TTITLE0=Awakening
TTITLE1=After Dreams
TTITLE2=Lady of the Spice Lands
TTITLE3=Arctic Light
TTITLE4=One Afternoon on Rue Labrador
TTITLE5=The Long Sands
TTITLE6=Dusty's Girl
TTITLE7=Heather, Weeds and Rushes
TTITLE8=International Connection
TTITLE9=The Maiden and the Hunchback
TTITLE10=Sonnen Allee
TTITLE11=Home Again
TTITLE12=Lilacs
TTITLE13=Your Eyes, Your Hands
TTITLE14=That Day Would Come
TTITLE15=Transcendental Railway Station
TTITLE16=Vermont
TTITLE17=Wiggly Bridge
TTITLE18=Pastoral in D
EXTD=YEAR: 2003
EXTT0=
EXTT1=
EXTT2=
EXTT3=
EXTT4=
EXTT5=
EXTT6=
EXTT7=
EXTT8=
EXTT9=
EXTT10=
EXTT11=
EXTT12=
EXTT13=
EXTT14=
EXTT15=
EXTT16=
EXTT17=
EXTT18=
PLAYORDER=
